HIERARCHY
ROOT hip
{
  OFFSET 0 0 0
  CHANNELS 6 Xposition Yposition Zposition Zrotation Yrotation Xrotation
  JOINT abdomen
  {
    OFFSET 0 20.6881 -0.73152
    CHANNELS 3 Zrotation Xrotation Yrotation
    JOINT chest
    {
      OFFSET 0 11.7043 -0.48768
      CHANNELS 3 Zrotation Xrotation Yrotation
      JOINT neck
      {
        OFFSET 0 22.1894 -2.19456
        CHANNELS 3 Zrotation Xrotation Yrotation
        JOINT head
        {
          OFFSET -0.24384 7.07133 1.2192
          CHANNELS 3 Zrotation Xrotation Yrotation
          JOINT leftEye
          {
            OFFSET 4.14528 8.04674 8.04672
            CHANNELS 3 Zrotation Xrotation Yrotation
            End Site
            {
              OFFSET 1 0 0
            }
          }
          JOINT rightEye
          {
            OFFSET -3.6576 8.04674 8.04672
            CHANNELS 3 Zrotation Xrotation Yrotation
            End Site
            {
              OFFSET 1 0 0
            }
          }
        }
      }
      JOINT rCollar
      {
        OFFSET -2.68224 19.2634 -4.8768
        CHANNELS 3 Zrotation Xrotation Yrotation
        JOINT rShldr
        {
          OFFSET -8.77824 -1.95073 1.46304
          CHANNELS 3 Zrotation Xrotation Yrotation
          JOINT rForeArm
          {
            OFFSET -28.1742 -1.7115 0.48768
            CHANNELS 3 Zrotation Xrotation Yrotation
            JOINT rHand
            {
              OFFSET -22.5879 0.773209 7.07136
              CHANNELS 3 Zrotation Xrotation Yrotation
              JOINT rThumb1
              {
                OFFSET -1.2192 -0.487915 3.41376
                CHANNELS 3 Zrotation Xrotation Yrotation
                JOINT rThumb2
                {
                  OFFSET -3.37035 -0.52449 3.41376
                  CHANNELS 3 Zrotation Xrotation Yrotation
                  End Site
                  {
                    OFFSET -1.78271 -1.18214 1.43049
                  }
                }
              }
              JOINT rIndex1
              {
                OFFSET -7.75947 0.938293 5.60832
                CHANNELS 3 Zrotation Xrotation Yrotation
                JOINT rIndex2
                {
                  OFFSET -2.54057 -0.884171 1.56538
                  CHANNELS 3 Zrotation Xrotation Yrotation
                  End Site
                  {
                    OFFSET -1.62519 -0.234802 1.16502
                  }
                }
              }
              JOINT rMid1
              {
                OFFSET -8.24714 1.18213 3.41376
                CHANNELS 3 Zrotation Xrotation Yrotation
                JOINT rMid2
                {
                  OFFSET -3.10165 -0.590103 1.0647
                  CHANNELS 3 Zrotation Xrotation Yrotation
                  End Site
                  {
                    OFFSET -2.48547 -0.328903 0.83742
                  }
                }
              }
              JOINT rRing1
              {
                OFFSET -8.82822 0.546677 1.51678
                CHANNELS 3 Zrotation Xrotation Yrotation
                JOINT rRing2
                {
                  OFFSET -2.60934 -0.819778 -0.0198488
                  CHANNELS 3 Zrotation Xrotation Yrotation
                  End Site
                  {
                    OFFSET -2.33842 -0.294052 0.168128
                  }
                }
              }
              JOINT rPinky1
              {
                OFFSET -8.27202 -0.0477905 -0.4584
                CHANNELS 3 Zrotation Xrotation Yrotation
                JOINT rPinky2
                {
                  OFFSET -1.82734 -0.647385 -0.700984
                  CHANNELS 3 Zrotation Xrotation Yrotation
                  End Site
                  {
                    OFFSET -1.69225 -0.51767 -0.607171
                  }
                }
              }
            }
          }
        }
      }
      JOINT lCollar
      {
        OFFSET 2.68224 19.2634 -4.8768
        CHANNELS 3 Zrotation Xrotation Yrotation
        JOINT lShldr
        {
          OFFSET 8.77824 -1.95073 1.46304
          CHANNELS 3 Zrotation Xrotation Yrotation
          JOINT lForeArm
          {
            OFFSET 28.1742 -1.7115 0.48768
            CHANNELS 3 Zrotation Xrotation Yrotation
            JOINT lHand
            {
              OFFSET 22.5879 0.773209 7.07136
              CHANNELS 3 Zrotation Xrotation Yrotation
              JOINT lThumb1
              {
                OFFSET 1.2192 -0.487915 3.41376
                CHANNELS 3 Zrotation Xrotation Yrotation
                JOINT lThumb2
                {
                  OFFSET 3.37035 -0.52449 3.41376
                  CHANNELS 3 Zrotation Xrotation Yrotation
                  End Site
                  {
                    OFFSET 1.78271 -1.18214 1.43049
                  }
                }
              }
              JOINT lIndex1
              {
                OFFSET 7.75947 0.938293 5.60832
                CHANNELS 3 Zrotation Xrotation Yrotation
                JOINT lIndex2
                {
                  OFFSET 2.54057 -0.884171 1.56538
                  CHANNELS 3 Zrotation Xrotation Yrotation
                  End Site
                  {
                    OFFSET 1.62519 -0.234802 1.16502
                  }
                }
              }
              JOINT lMid1
              {
                OFFSET 8.24714 1.18213 3.41376
                CHANNELS 3 Zrotation Xrotation Yrotation
                JOINT lMid2
                {
                  OFFSET 3.10165 -0.590103 1.0647
                  CHANNELS 3 Zrotation Xrotation Yrotation
                  End Site
                  {
                    OFFSET 2.48547 -0.328903 0.83742
                  }
                }
              }
              JOINT lRing1
              {
                OFFSET 8.82822 0.546677 1.51678
                CHANNELS 3 Zrotation Xrotation Yrotation
                JOINT lRing2
                {
                  OFFSET 2.60934 -0.819778 -0.0198488
                  CHANNELS 3 Zrotation Xrotation Yrotation
                  End Site
                  {
                    OFFSET 2.33842 -0.294052 0.168128
                  }
                }
              }
              JOINT lPinky1
              {
                OFFSET 8.27202 -0.0477905 -0.4584
                CHANNELS 3 Zrotation Xrotation Yrotation
                JOINT lPinky2
                {
                  OFFSET 1.82734 -0.647385 -0.700984
                  CHANNELS 3 Zrotation Xrotation Yrotation
                  End Site
                  {
                    OFFSET 1.69225 -0.51767 -0.607171
                  }
                }
              }
            }
          }
        }
      }
    }
  }
  JOINT rButtock
  {
    OFFSET -8.77824 4.35084 1.2192
    CHANNELS 3 Zrotation Xrotation Yrotation
    JOINT rThigh
    {
      OFFSET 0 -1.70687 -2.19456
      CHANNELS 3 Zrotation Xrotation Yrotation
      JOINT rShin
      {
        OFFSET 0 -36.8199 0.73152
        CHANNELS 3 Zrotation Xrotation Yrotation
        JOINT rFoot
        {
          OFFSET 0.73152 -45.1104 -5.12064
          CHANNELS 3 Zrotation Xrotation Yrotation
          End Site
          {
            OFFSET -1.1221 -3.69964 12.103
          }
        }
      }
    }
  }
  JOINT lButtock
  {
    OFFSET 8.77824 4.35084 1.2192
    CHANNELS 3 Zrotation Xrotation Yrotation
    JOINT lThigh
    {
      OFFSET 0 -1.70687 -2.19456
      CHANNELS 3 Zrotation Xrotation Yrotation
      JOINT lShin
      {
        OFFSET 0 -36.8199 0.73152
        CHANNELS 3 Zrotation Xrotation Yrotation
        JOINT lFoot
        {
          OFFSET -0.73152 -45.1104 -5.12064
          CHANNELS 3 Zrotation Xrotation Yrotation
          End Site
          {
            OFFSET 1.1221 -3.69964 12.103
          }
        }
      }
    }
  }
}
MOTION
Frames:	5
Frame Time:	0.03333
1.7455000121117337 73.68509769439697 3.5139999752573203 -1.4700273275375366 -62.59989929199219 1.8259869813919067 -9.287178993225098 12.6163969039917 3.1961185932159424 -0.3521941900253296 -10.122806549072266 0.5914727449417114 0.668738842010498 14.415003776550293 13.671600341796875 1.29294753074646 -20.812604904174805 26.926103591918945 -0.0 0.0 -0.0 -0.0 0.0 -0.0 -0.0 0.0 -0.0 111.24299621582031 42.29109573364258 -54.932594299316406 -28.25969886779785 -38.71290588378906 81.6448974609375 -8.255475044250488 -60.18526077270508 -14.197264671325684 -0.0 0.0 0.0 -0.0 0.0 0.0 -0.0 0.0 0.0 7.730902194976807 5.47491455078125 0.4173222780227661 -0.0 0.0 0.0 2.905566453933716 0.9650754332542419 0.10300818830728531 -0.0 0.0 0.0 10.278596878051758 0.7318810820579529 0.026273518800735474 -0.0 0.0 0.0 2.221662998199463 -0.7334509491920471 -0.20832103490829468 -0.0 0.0 -0.0 -67.69168853759766 -7.937713146209717 -13.635311126708984 25.652603149414062 -46.91850662231445 -97.52570343017578 7.377769947052002 -58.42359161376953 13.195104598999023 -0.0 0.0 0.0 -0.0 0.0 0.0 -0.0 0.0 0.0 -7.730902194976807 5.47491455078125 -0.4173222780227661 -0.0 0.0 0.0 -2.905566453933716 0.9650754332542419 -0.10300818830728531 -0.0 0.0 0.0 -10.278596878051758 0.7318810820579529 -0.026273518800735474 -0.0 0.0 0.0 -2.221662998199463 -0.7334509491920471 0.20832103490829468 -0.0 0.0 -0.0 -25.387313842773438 -52.2119026184082 -24.00151252746582 -1.3464508056640625 63.72399139404297 1.7976325750350952 2.6269643306732178 -6.833162307739258 13.34819507598877 0.0 0.0 0.0 8.481487274169922 -8.65400218963623 10.159892082214355 0.4189533293247223 52.922096252441406 -2.3308067321777344 18.781295776367188 -26.85790252685547 29.73590087890625
1.7432000120606972 73.53649735450745 3.599999972357182 -0.4292363226413727 -63.316715240478516 0.9031280875205994 -9.823974609375 12.458710670471191 3.5335304737091064 -0.17727093398571014 -10.041290283203125 0.6900386810302734 0.6364061832427979 14.576708793640137 13.693389892578125 1.4186391830444336 -20.659591674804688 26.968109130859375 -0.0 0.0 -0.0 -0.0 0.0 -0.0 -0.0 0.0 -0.0 111.13400268554688 41.40181350708008 -54.58348846435547 -28.262008666992188 -38.6924934387207 81.60950469970703 -7.812179088592529 -59.285987854003906 -13.683820724487305 -0.0 0.0 0.0 -0.0 0.0 0.0 -0.0 0.0 0.0 7.730902194976807 5.47491455078125 0.4173222780227661 -0.0 0.0 0.0 2.905566453933716 0.9650754332542419 0.10300818830728531 -0.0 0.0 0.0 10.278596878051758 0.7318810820579529 0.026273518800735474 -0.0 0.0 0.0 2.221662998199463 -0.7334509491920471 -0.20832103490829468 -0.0 0.0 -0.0 -67.73519897460938 -7.766634464263916 -12.746786117553711 25.482004165649414 -47.20928955078125 -98.17878723144531 8.104981422424316 -59.88467788696289 14.023999214172363 -0.0 0.0 0.0 -0.0 0.0 0.0 -0.0 0.0 0.0 -7.730902194976807 5.47491455078125 -0.4173222780227661 -0.0 0.0 0.0 -2.905566453933716 0.9650754332542419 -0.10300818830728531 -0.0 0.0 0.0 -10.278596878051758 0.7318810820579529 -0.026273518800735474 -0.0 0.0 0.0 -2.221662998199463 -0.7334509491920471 0.20832103490829468 -0.0 0.0 -0.0 -25.450496673583984 -52.768306732177734 -23.724599838256836 -1.377389669418335 64.12409973144531 1.8389915227890015 2.666104793548584 -6.7593207359313965 13.503396987915039 0.0 0.0 0.0 8.50180721282959 -8.557587623596191 11.278694152832031 0.42458269000053406 53.18570327758789 -2.3577897548675537 18.894691467285156 -27.1947021484375 29.664390563964844
1.7378000120515935 73.36819767951965 3.6979999735194724 0.22329360246658325 -64.17362213134766 0.24442046880722046 -10.27960205078125 12.325704574584961 3.9745397567749023 -0.10485026985406876 -9.954275131225586 0.8098509311676025 0.6203641891479492 14.637680053710938 13.713797569274902 1.5259144306182861 -20.25420570373535 26.990903854370117 -0.0 0.0 -0.0 -0.0 0.0 -0.0 -0.0 -0.0 -0.0 110.56100463867188 40.75861358642578 -53.95539093017578 -28.26110076904297 -38.699405670166016 81.6218032836914 -7.440245151519775 -58.42998504638672 -13.235221862792969 -0.0 0.0 0.0 -0.0 0.0 0.0 -0.0 0.0 0.0 7.730902194976807 5.47491455078125 0.4173222780227661 -0.0 0.0 0.0 2.905566453933716 0.9650754332542419 0.10300818830728531 -0.0 0.0 0.0 10.278596878051758 0.7318810820579529 0.026273518800735474 -0.0 0.0 0.0 2.221662998199463 -0.7334509491920471 -0.20832103490829468 -0.0 -0.0 -0.0 -67.58790588378906 -7.540551662445068 -11.935502052307129 25.379600524902344 -47.38349151611328 -98.56480407714844 8.223783493041992 -60.122520446777344 14.160820960998535 -0.0 0.0 0.0 -0.0 0.0 0.0 -0.0 0.0 0.0 -7.730902194976807 5.47491455078125 -0.4173222780227661 -0.0 0.0 0.0 -2.905566453933716 0.9650754332542419 -0.10300818830728531 -0.0 0.0 0.0 -10.278596878051758 0.7318810820579529 -0.026273518800735474 -0.0 0.0 0.0 -2.221662998199463 -0.7334509491920471 0.20832103490829468 -0.0 0.0 -0.0 -25.434003829956055 -53.30061340332031 -23.250886917114258 -1.410205602645874 64.51809692382812 1.8830052614212036 2.7683165073394775 -6.7052483558654785 13.892492294311523 0.0 0.0 0.0 8.231802940368652 -8.31116008758545 12.129483222961426 0.4270082712173462 53.39329528808594 -2.3871278762817383 19.187292098999023 -27.446496963500977 29.909889221191406
1.7064000116079114 73.18990230560303 3.7789999732922297 0.23318913578987122 -64.89348602294922 0.0741237998008728 -10.338705062866211 12.279107093811035 4.270373821258545 -0.11511567234992981 -9.912766456604004 0.8925736546516418 0.6306864023208618 14.709599494934082 13.760395050048828 1.4977446794509888 -19.861997604370117 27.04020118713379 -0.0 0.0 -0.0 -0.0 0.0 -0.0 -0.0 0.0 -0.0 110.00100708007812 40.340702056884766 -53.49360656738281 -28.2544002532959 -38.757999420166016 81.72330474853516 -7.543401718139648 -58.76423645019531 -13.384116172790527 -0.0 0.0 0.0 -0.0 0.0 0.0 -0.0 0.0 0.0 7.730902194976807 5.47491455078125 0.4173222780227661 -0.0 0.0 0.0 2.905566453933716 0.9650754332542419 0.10300818830728531 -0.0 0.0 0.0 10.278596878051758 0.7318810820579529 0.026273518800735474 -0.0 0.0 0.0 2.221662998199463 -0.7334509491920471 -0.20832103490829468 -0.0 0.0 -0.0 -67.51110076904297 -7.473570346832275 -11.147401809692383 25.277700424194336 -47.55229187011719 -98.94298553466797 8.481760025024414 -60.6237678527832 14.457235336303711 -0.0 0.0 0.0 -0.0 0.0 0.0 -0.0 0.0 0.0 -7.730902194976807 5.47491455078125 -0.4173222780227661 -0.0 0.0 0.0 -2.905566453933716 0.9650754332542419 -0.10300818830728531 -0.0 0.0 0.0 -10.278596878051758 0.7318810820579529 -0.026273518800735474 -0.0 0.0 0.0 -2.221662998199463 -0.7334509491920471 0.20832103490829468 -0.0 0.0 -0.0 -25.17959213256836 -53.638397216796875 -22.750093460083008 -1.4384441375732422 64.83708190917969 1.9182199239730835 2.888591766357422 -6.74999475479126 14.263394355773926 0.0 0.0 0.0 8.142802238464355 -8.057071685791016 12.813186645507812 0.4331128001213074 53.67789840698242 -2.4146881103515625 19.525495529174805 -27.620901107788086 30.25209617614746
1.6773000112152658 73.02610278129578 3.870999975333689 -0.14078164100646973 -65.51429748535156 0.2095155566930771 -10.002809524536133 12.319393157958984 4.421457767486572 -0.20776492357254028 -9.91683578491211 0.9377918243408203 0.6671220660209656 14.792195320129395 13.83340072631836 1.3334858417510986 -19.48320960998535 27.11568832397461 -0.0 0.0 -0.0 -0.0 0.0 -0.0 -0.0 0.0 0.0 109.44197082519531 40.1523323059082 -53.18343734741211 -28.2410888671875 -38.86750411987305 81.91529083251953 -8.299877166748047 -60.27424240112305 -14.247859001159668 -0.0 0.0 -0.0 -0.0 0.0 -0.0 -0.0 0.0 -0.0 7.730902194976807 5.47491455078125 0.4173222780227661 -0.0 0.0 -0.0 2.905566453933716 0.9650754332542419 0.10300818830728531 -0.0 0.0 -0.0 10.278596878051758 0.7318810820579529 0.026273518800735474 -0.0 0.0 -0.0 2.221662998199463 -0.7334509491920471 -0.20832103490829468 -0.0 0.0 0.0 -67.4981918334961 -7.567157745361328 -10.381600379943848 25.17640495300293 -47.71598815917969 -99.31310272216797 8.8772611618042 -61.38854217529297 14.919137001037598 -0.0 0.0 0.0 -0.0 0.0 0.0 -0.0 0.0 0.0 -7.730902194976807 5.47491455078125 -0.4173222780227661 -0.0 0.0 0.0 -2.905566453933716 0.9650754332542419 -0.10300818830728531 -0.0 0.0 0.0 -10.278596878051758 0.7318810820579529 -0.026273518800735474 -0.0 0.0 0.0 -2.221662998199463 -0.7334509491920471 0.20832103490829468 -0.0 0.0 -0.0 -24.69472312927246 -53.78041076660156 -22.226829528808594 -1.4594098329544067 65.08110046386719 1.9425899982452393 3.0289299488067627 -6.893165588378906 14.616290092468262 0.0 0.0 0.0 8.23666000366211 -7.795891284942627 13.330111503601074 0.44377240538597107 54.03961181640625 -2.4408464431762695 19.90909194946289 -27.716999053955078 30.69040298461914
